<?xml version="1.0" encoding="UTF-8"?>
<svg width="37px" height="37px" viewBox="0 0 37 37" version="1.1" xmlns="http://www.w3.org/2000/svg" xmlns:xlink="http://www.w3.org/1999/xlink">
    <title>金豆</title>
    <g id="页面-1" stroke="none" stroke-width="1" fill="none" fill-rule="evenodd">
        <g id="我的" transform="translate(-523.000000, -197.000000)" fill-rule="nonzero">
            <g id="金豆，银豆-01" transform="translate(520.000000, 195.000000)">
                <rect id="矩形" fill="#000000" opacity="0" x="3.63636364" y="2.42424242" width="36.3636364" height="36.3636364"></rect>
                <path d="M20.6356174,10.2723823 C20.6356174,10.2723823 27.5607701,9.98541847 30.5295556,10.5426912 L30.5357312,10.5436451 L30.5839818,10.5515989 C31.3219304,10.6776592 39.3156859,12.2096558 39.2859121,19.4178332 C39.2859121,19.4178332 39.2977225,19.544084 39.3003835,19.7722734 L39.3008016,19.9067039 C39.2900544,21.9982968 38.4686022,30.1900176 26.466807,32.4535932 L26.430891,32.4573063 C26.0408581,32.4970862 22.5578581,32.8387199 20.1004363,32.6132903 C14.9695414,32.1414721 11.4592076,29.8941994 7.72529421,25.5602718 C7.72529421,25.5602718 -0.826516874,14.2227008 9.23923242,9.22632295 C9.23895543,9.22660811 13.7753191,6.79450583 20.6356174,10.2723823 Z M23.4477003,22.8412412 C21.0694371,22.1904157 19.4968135,22.6455424 19.4969095,22.645489 C16.0074108,23.5804763 18.9720717,25.7021102 18.9720717,25.7021102 C20.2665095,26.5131311 21.4834388,26.9336701 23.2621688,27.0219628 C24.1657158,27.0667048 25.4692019,26.9920782 25.4692019,26.9920782 C30.2515798,26.5051935 29.9132079,24.5526571 29.9132079,24.5526571 C29.9232275,23.2432527 27.3121797,22.9347754 26.9253028,22.8962597 L26.8776372,22.891825 C26.5482962,22.8584541 26.0785079,22.8412607 25.5918832,22.8333086 L25.2256891,22.8289688 C24.311969,22.8219091 23.4477003,22.8412412 23.4477003,22.8412412 Z" id="形状结合" fill="#F88142" transform="translate(21.818494, 20.544663) scale(-1, 1) rotate(31.000000) translate(-21.818494, -20.544663) "></path>
            </g>
        </g>
    </g>
</svg>