<?xml version="1.0" encoding="UTF-8"?>
<svg width="54px" height="54px" viewBox="0 0 54 54" version="1.1" xmlns="http://www.w3.org/2000/svg" xmlns:xlink="http://www.w3.org/1999/xlink">
    <title>服务订单</title>
    <defs>
        <rect id="path-1" x="0" y="0" width="54" height="54"></rect>
    </defs>
    <g id="页面-1" stroke="none" stroke-width="1" fill="none" fill-rule="evenodd">
        <g id="我的" transform="translate(-90.000000, -366.000000)">
            <g id="分组-3" transform="translate(30.000000, 165.000000)">
                <g id="分组-10" transform="translate(60.000000, 186.000000)">
                    <g id="分组-8" transform="translate(0.000000, 15.000000)">
                        <mask id="mask-2" fill="white">
                            <use xlink:href="#path-1"></use>
                        </mask>
                        <use id="Mask" fill="#FFFFFF" opacity="0" xlink:href="#path-1"></use>
                        <path d="M10.8055556,33.3055555 C12.3089974,33.3055555 13.5277778,32.0867751 13.5277778,30.5833333 L13.5277778,7.44444444 C13.5275574,5.94115844 12.3088416,4.7226212 10.8055556,4.7226212 C9.30226955,4.7226212 8.08355369,5.94115844 8.08333334,7.44444444 L8.08333334,30.5833333 C8.08333334,32.0867752 9.30211378,33.3055555 10.8055556,33.3055555 L10.8055556,33.3055555 Z M47.5555556,36.0277778 L36.4897222,36.0277778 C35.6579752,36.0490322 34.8854692,36.4630551 34.4072223,37.1438889 C32.5446971,39.1623816 29.8819127,40.2494359 27.1388889,40.1111111 C24.3958652,40.2494359 21.7330807,39.1623816 19.8705556,37.1438889 C19.3923087,36.4630551 18.6198026,36.0490322 17.7880556,36.0277778 L6.72222225,36.0277778 C5.21878044,36.0277778 4,37.2465582 4,38.75 L4,48.2777778 C4,49.7812196 5.21878041,51 6.72222225,51 L47.5555556,51 C49.0589974,51 50.2777778,49.7812196 50.2777778,48.2777778 L50.2777778,38.75 C50.2777778,37.2465582 49.0589974,36.0277778 47.5555556,36.0277778 L47.5555556,36.0277778 Z M18.9722222,33.3055555 L42.1111111,33.3055555 C43.6145529,33.3055555 44.8333334,32.0867752 44.8333334,30.5833333 L44.8333334,4.72222225 C44.8333334,3.21878041 43.614553,2 42.1111111,2 L18.9722222,2 C17.4687804,2 16.25,3.21878044 16.25,4.72222225 L16.25,30.5833333 C16.25,32.0867751 17.4687804,33.3055555 18.9722222,33.3055555 L18.9722222,33.3055555 Z M21.6944445,8.80555553 L39.3888889,8.80555553 C40.1406098,8.80555553 40.75,9.41494574 40.75,10.1666667 C40.75,10.9183876 40.1406098,11.5277778 39.3888889,11.5277778 L21.6944445,11.5277778 C20.9427236,11.5277778 20.3333333,10.9183876 20.3333333,10.1666667 C20.3333333,9.41494574 20.9427236,8.80555553 21.6944445,8.80555553 L21.6944445,8.80555553 Z M21.6944445,15.6111111 L36.6666667,15.6111111 C37.4183876,15.6111111 38.0277777,16.2205013 38.0277777,16.9722222 C38.0277777,17.7239431 37.4183876,18.3333333 36.6666667,18.3333333 L21.6944445,18.3333333 C20.9427236,18.3333333 20.3333334,17.7239431 20.3333334,16.9722222 C20.3333334,16.2205013 20.9427236,15.6111111 21.6944445,15.6111111 L21.6944445,15.6111111 Z M21.6944445,22.4166667 L38.0277778,22.4166667 C38.7794987,22.4166667 39.3888889,23.0260569 39.3888889,23.7777778 C39.3888889,24.5294987 38.7794987,25.1388889 38.0277778,25.1388889 L21.6944445,25.1388889 C20.9427236,25.1388889 20.3333333,24.5294987 20.3333333,23.7777778 C20.3333333,23.0260569 20.9427236,22.4166667 21.6944445,22.4166667 L21.6944445,22.4166667 Z" id="形状" fill="#FF7E6C" mask="url(#mask-2)"></path>
                    </g>
                </g>
            </g>
        </g>
    </g>
</svg>