<?xml version="1.0" encoding="UTF-8"?>
<svg width="54px" height="54px" viewBox="0 0 54 54" version="1.1" xmlns="http://www.w3.org/2000/svg" xmlns:xlink="http://www.w3.org/1999/xlink">
    <title>商品订单</title>
    <defs>
        <rect id="path-1" x="0" y="15" width="54" height="54"></rect>
    </defs>
    <g id="页面-1" stroke="none" stroke-width="1" fill="none" fill-rule="evenodd">
        <g id="我的" transform="translate(-432.000000, -366.000000)">
            <g id="分组-3" transform="translate(30.000000, 165.000000)">
                <g id="分组-9" transform="translate(402.000000, 186.000000)">
                    <mask id="mask-2" fill="white">
                        <use xlink:href="#path-1"></use>
                    </mask>
                    <use id="Mask" fill="#FFFFFF" opacity="0" xlink:href="#path-1"></use>
                    <path d="M14.8,17 L39.3,17 L39.3,21.9 L14.8,21.9 L14.8,17 Z M41.75,17 L41.75,24.35 L12.35,24.35 L12.35,17 L11,17 C7.6862915,17 5,19.6862915 5,23 L5,60 C5,63.3137085 7.6862915,66 11,66 L43.1,66 C46.4137085,66 49.1,63.3137085 49.1,60 L49.1,23 C49.1,19.6862915 46.4137085,17 43.1,17 L41.75,17 L41.75,17 Z M41.75,56.2 L12.35,56.2 L12.35,51.3 L41.75,51.3 L41.75,56.2 Z M41.75,46.4 L12.35,46.4 L12.35,41.5 L41.75,41.5 L41.75,46.4 Z M41.75,36.6 L12.35,36.6 L12.35,31.7 L41.75,31.7 L41.75,36.6 Z" id="形状" fill="#6371FB" mask="url(#mask-2)"></path>
                </g>
            </g>
        </g>
    </g>
</svg>