<?xml version="1.0" encoding="UTF-8"?>
<svg width="24px" height="24px" viewBox="0 0 24 24" version="1.1" xmlns="http://www.w3.org/2000/svg" xmlns:xlink="http://www.w3.org/1999/xlink">
    <title>时间</title>
    <g id="页面-1" stroke="none" stroke-width="1" fill="none" fill-rule="evenodd">
        <g id="我的" transform="translate(-310.000000, -677.000000)" fill="#FFFFFF" fill-rule="nonzero">
            <g id="分组-11" transform="translate(30.000000, 514.000000)">
                <g id="分组-5" transform="translate(280.000000, 158.000000)">
                    <path d="M12.0009011,5 C5.37320097,5 0,10.3713987 0,16.9991527 C0,23.6267452 5.37322787,28.9990585 12.0008742,28.9990585 C18.6276867,28.9990585 24,23.6267452 24,16.9991527 C24,10.3713987 18.6276867,5 12.0008742,5 L12.0009011,5 Z M18.0023335,18.3234822 L11.630714,18.3234822 C11.4959489,18.3234822 11.3665905,18.2966637 11.247938,18.2462815 C10.8958271,18.0971791 10.647628,17.7475698 10.647628,17.3406114 L10.647628,10.9689381 C10.647628,10.4254393 11.0879145,9.98509895 11.630714,9.98509895 C12.1753426,9.98509895 12.6156022,10.4254393 12.6156022,10.9689381 L12.6156022,16.3556963 L18.0023335,16.3556963 C18.5460207,16.3556963 18.9861727,16.7959828 18.9861727,17.33967 C18.9861727,17.8831957 18.5458862,18.3234822 18.0023335,18.3234822 Z" id="形状"></path>
                </g>
            </g>
        </g>
    </g>
</svg>